<svg version="1.1" xmlns="http://www.w3.org/2000/svg" xmlns:xlink="http://www.w3.org/1999/xlink" width="94" height="46" viewBox="0,0,94,46"><g transform="translate(-33,-169.5)"><g stroke-miterlimit="10"><g><path d="M33.5,214v-44h92v44z" fill="#f8f8f8" stroke="#000000"/><path d="M35,212.5v-7h89v7z" fill="#c0c0c0" stroke="none"/><path d="M35,205.5v-7h89v7z" fill="#000000" stroke="none"/><path d="M35,191.4999v-3h89v3z" fill="#000000" stroke="none"/><path d="M35,184.5v-3h89v3z" fill="#000000" stroke="none"/><path d="M35,178.5v-3h89v3z" fill="#000000" stroke="none"/><path d="M35,198.5v-7h89v7z" fill="#d0d0d0" stroke="none"/><path d="M35,188.5v-4h89v4z" fill="#e0e0e0" stroke="none"/><path d="M35,181.5v-3h89v3z" fill="#f0f0f0" stroke="none"/><path d="M35,175.5v-4h89v4z" fill="#f8f8f8" stroke="none"/><path d="M111,215.5v-16h16v16z" fill="#000000" stroke="none"/><path d="M112,206.5v-6h14v6z" fill="#515151" stroke="none"/><path d="M113,201.5v-1h12v1z" fill="#fbfbfb" stroke="none"/><path d="M115,203.5v-1h8v1z" fill="#fbfbfb" stroke="none"/><path d="M117,205.5v-1h4v1z" fill="#fbfbfb" stroke="none"/><path d="M112,214.5v-7h14v7z" fill="#fbfbfb" stroke="none"/><path d="M113,214.5v-3h1v3z" fill="#000000" stroke="none"/><path d="M115,213.5h-3v-1h3z" fill="#000000" stroke="none"/><path d="M124,212.5v-1h1v1z" fill="#000000" stroke="none"/><path d="M125,213.5v-1h1v1z" fill="#000000" stroke="none"/><path d="M124,214.5v-1h1v1z" fill="#000000" stroke="none"/><path d="M123,213.5v-1h1v1z" fill="#000000" stroke="none"/><path d="M116,214.5v-2h6v2z" fill="#000000" stroke="none"/><path d="M116,211.5v-3h6v3z" fill="#000000" stroke="none"/><path d="M42,194.5v-9h1v9z" fill="#fbfbfb" stroke="none"/><path d="M49,191.5v-6h1v6z" fill="#fbfbfb" stroke="none"/><path d="M49,186.5h-6v-1h6z" fill="#fbfbfb" stroke="none"/><path d="M49,191.5h-6v-1h6z" fill="#fbfbfb" stroke="none"/><path d="M52,194.5v-9h1v9z" fill="#fbfbfb" stroke="none"/><path d="M72,186.5h-9v-1h9z" fill="#fbfbfb" stroke="none"/><path d="M67,194.5v-9h1v9z" fill="#fbfbfb" stroke="none"/><path d="M121,186.5h-9v-1h9z" fill="#fbfbfb" stroke="none"/><path d="M116,194.5v-9h1v9z" fill="#fbfbfb" stroke="none"/><path d="M81,186.5h-7v-1h7z" fill="#fbfbfb" stroke="none"/><path d="M81,194.5h-7v-1h7z" fill="#fbfbfb" stroke="none"/><path d="M73,194.5v-9h1v9z" fill="#fbfbfb" stroke="none"/><path d="M81,194.5v-9h1v9z" fill="#fbfbfb" stroke="none"/><path d="M91,194.5h-6v-1h6z" fill="#fbfbfb" stroke="none"/><path d="M91,186.5h-6v-1h6z" fill="#fbfbfb" stroke="none"/><path d="M84,194.5v-9h1v9z" fill="#fbfbfb" stroke="none"/><path d="M62,194.5h-6v-1h6z" fill="#fbfbfb" stroke="none"/><path d="M62,186.5h-6v-1h6z" fill="#fbfbfb" stroke="none"/><path d="M55,194.5v-9h1v9z" fill="#fbfbfb" stroke="none"/><path d="M100,190.5h-6v-1h6z" fill="#fbfbfb" stroke="none"/><path d="M93,194.5v-9h1v9z" fill="#fbfbfb" stroke="none"/><path d="M100,194.5v-9h1v9z" fill="#fbfbfb" stroke="none"/><path d="M110,190.5h-6v-1h6z" fill="#fbfbfb" stroke="none"/><path d="M110,186.5h-6v-1h6z" fill="#fbfbfb" stroke="none"/><path d="M103,194.5v-9h1v9z" fill="#fbfbfb" stroke="none"/><path d="M110,194.5v-9h1v9z" fill="#fbfbfb" stroke="none"/><path d="M41,193.5v-9h1v9z" fill="#000000" stroke="none"/><path d="M48,190.5v-6h1v6z" fill="#000000" stroke="none"/><path d="M48,185.5h-6v-1h6z" fill="#000000" stroke="none"/><path d="M48,190.5h-6v-1h6z" fill="#000000" stroke="none"/><path d="M51,193.5v-9h1v9z" fill="#000000" stroke="none"/><path d="M71,185.5h-9v-1h9z" fill="#000000" stroke="none"/><path d="M66,193.5v-9h1v9z" fill="#000000" stroke="none"/><path d="M120,185.5h-9v-1h9z" fill="#000000" stroke="none"/><path d="M115,193.5v-9h1v9z" fill="#000000" stroke="none"/><path d="M80,185.5h-7v-1h7z" fill="#000000" stroke="none"/><path d="M80,193.5h-7v-1h7z" fill="#000000" stroke="none"/><path d="M72,193.5v-9h1v9z" fill="#000000" stroke="none"/><path d="M80,193.5v-9h1v9z" fill="#000000" stroke="none"/><path d="M90,193.5h-6v-1h6z" fill="#000000" stroke="none"/><path d="M90,185.5h-6v-1h6z" fill="#000000" stroke="none"/><path d="M83,193.5v-9h1v9z" fill="#000000" stroke="none"/><path d="M61,193.5h-6v-1h6z" fill="#000000" stroke="none"/><path d="M61,185.5h-6v-1h6z" fill="#000000" stroke="none"/><path d="M54,193.5v-9h1v9z" fill="#000000" stroke="none"/><path d="M99,189.5h-6v-1h6z" fill="#000000" stroke="none"/><path d="M92,193.5v-9h1v9z" fill="#000000" stroke="none"/><path d="M99,193.5v-9h1v9z" fill="#000000" stroke="none"/><path d="M109,189.5h-6v-1h6z" fill="#000000" stroke="none"/><path d="M109,185.5h-6v-1h6z" fill="#000000" stroke="none"/><path d="M102,193.5v-9h1v9z" fill="#000000" stroke="none"/><path d="M109,193.5v-9h1v9z" fill="#000000" stroke="none"/><path d="M75,188.5v-2h1v2z" fill="#797979" stroke="none"/><path d="M77,188.5v-2h1v2z" fill="#797979" stroke="none"/><path d="M78,190.5v-1h1v1z" fill="#797979" stroke="none"/><path d="M74,190.5v-1h1v1z" fill="#797979" stroke="none"/><path d="M75,191.5v-1h3v1z" fill="#797979" stroke="none"/></g></g></g></svg>